<svg preserveAspectRatio="xMidYMid meet" data-bbox="100 1778 4565.02 1072.769" viewBox="100 1778 4565.02 1072.769" height="100%" width="100%" xmlns="http://www.w3.org/2000/svg" data-type="color" role="presentation" aria-hidden="true" aria-labelledby="svgcid--1vnfe9rfk1xu"><title id="svgcid--1vnfe9rfk1xu"></title>
    <g>
        <path d="M2895 2667c-97-33-163-90-204-176-23-51-26-68-26-176 0-111 2-124 28-177 36-73 101-139 173-174 46-22 73-28 152-31 64-3 112 0 142 9l45 14 3 62c2 34 0 62-3 62s-20-8-38-17c-50-27-190-24-242 4-88 47-127 114-133 228-4 68-1 89 18 133 59 137 209 179 383 107 15-6 17-1 17 49 0 56 0 57-37 73-51 21-224 28-278 10z" fill="#173c65" data-color="1"></path>
        <path d="M1220 2305v-366l87 3 88 3 105 267c58 148 107 268 110 268s55-121 114-270l109-270h167v730h-60c-41 0-60-4-60-12 0-7-1-134-1-283 0-177-3-263-9-250-6 11-57 137-114 280l-104 260-44 3-44 3-113-281c-63-154-114-280-115-280 0 0-1 125-1 277v278l-57 3-58 3v-366z" fill="#173c65" data-color="1"></path>
        <path d="M2310 2360v-310h-210v-110h540v110h-200l-2 308-3 307-62 3-63 3v-311z" fill="#173c65" data-color="1"></path>
        <path d="M3374 2627c-3-8-4-47-2-88l3-74h73c68 0 76 2 98 28 45 52 24 118-44 137-53 14-122 13-128-3zm112-17c39 0 61-84 29-110-8-7-35-15-60-18l-45-5v146l31-7c17-3 37-6 45-6z" fill="#173c65" data-color="1"></path>
        <path d="M3634 2615c-22-22-25-32-22-88 2-47 7-62 18-62s16 17 20 70c5 65 7 70 32 79 18 6 35 6 52-2 23-10 25-18 28-79 2-52 6-68 18-68s15 14 15 68c0 60-3 71-24 88-35 29-105 26-137-6z" fill="#173c65" data-color="1"></path>
        <path d="M3850 2550v-90h63c78 0 102 14 95 58-2 18-1 32 3 32 11 0 20 35 13 53-8 22-57 37-120 37h-54v-90zm134 50c5-5 6-16 3-24-5-12-20-16-57-16-46 0-50 2-50 23 0 13 3 27 8 31 9 9 84-2 96-14zm-7-86c8-21-14-34-59-34-34 0-38 3-38 25 0 23 4 25 45 25 33 0 47-5 52-16z" fill="#173c65" data-color="1"></path>
        <path d="M4050 2630c0-6 18-46 40-90 53-106 64-105 124 5 25 47 46 87 46 90s-7 5-15 5c-9 0-24-13-33-30-15-26-23-30-60-30s-45 4-60 30c-16 29-42 41-42 20zm130-78c0-5-7-17-15-28-15-19-15-19-30 0-22 29-19 36 15 36 17 0 30-4 30-8z" fill="#173c65" data-color="1"></path>
        <path d="M4295 2627c-3-7-5-47-3-88 2-58 6-74 18-74s15 16 15 84c0 59-4 86-12 88-7 3-15-2-18-10z" fill="#173c65" data-color="1"></path>
        <path d="M3740 2291c0-5 6-11 14-14 9-4 16-29 21-74 5-59 33-308 36-330 1-4 9 82 19 191 14 158 21 202 34 211 28 21 18 25-54 25-38 0-70-4-70-9z" fill="#173c65" data-color="1"></path>
        <path d="M4410 2291c-49-10-60-18-60-45 0-33 7-36 45-20 48 20 159 19 179-2 32-31 17-47-83-89-106-44-129-59-137-92-10-37 13-74 61-98 50-24 192-28 219-6 23 20 17 57-9 53-120-20-195-9-195 28 0 21 9 26 147 85 76 32 110 96 73 140-35 42-154 65-240 46z" fill="#173c65" data-color="1"></path>
        <path d="M3360 2110v-182l114 4c98 2 119 6 143 24 39 29 44 86 10 116l-24 22 31 21c61 41 58 100-7 149-24 18-45 21-148 24l-119 4v-182zm206 115c30-12 35-19 32-42-4-36-38-53-110-53h-58v110h50c28 0 67-7 86-15zm-3-177c10-11 16-26 14-32-6-20-51-36-99-36h-48v43c0 24 3 47 8 51 14 15 106-4 125-26z" fill="#173c65" data-color="1"></path>
        <path d="M4080 2135v-155h-70c-68 0-70-1-70-25v-25l178 2c169 3 177 4 177 23 0 18-8 20-72 23l-73 3v309h-70v-155z" fill="#173c65" data-color="1"></path>
        <path d="M635 2823c-99-18-186-35-192-38-10-3-13-47-13-170v-165l198 2 197 3 3 194c1 107-1 197-5 201-5 4-89-8-188-27z" fill="#fe592e" data-color="2"></path>
        <path d="M297 2630c-43-10-81-20-84-23s-8-35-10-70c-4-48-2-66 8-73 15-9 163-16 183-8 9 4 12 23 10 67-2 34-3 77-4 95 0 37 2 37-103 12z" fill="#9cc74a" data-color="3"></path>
        <path d="M100 2321c0-105 2-120 18-125 9-3 75-17 145-32 143-31 144-31 141 39 0 23-2 86-3 140l-1 97H100v-119z" fill="#9cc74a" data-color="3"></path>
        <path d="M435 2427c-3-7-4-129-3-272l3-259 290-52c160-28 307-55 328-59l37-7-2 328-3 329-323 3c-255 2-324 0-327-11z" fill="#2ab0f2" data-color="4"></path>
        <path d="M100 2321c0-105 2-120 18-125 9-3 75-17 145-32 143-31 144-31 141 39 0 23-2 85-3 139l-1 96-150 1-150 2v-120z" fill="#fec11d" data-color="5"></path>
    </g>
</svg>